<?xml version="1.0" encoding="utf-8"?>
<!-- Generator: Adobe Illustrator 24.2.3, SVG Export Plug-In . SVG Version: 6.00 Build 0)  -->
<svg version="1.1" id="Layer_1" xmlns="http://www.w3.org/2000/svg" xmlns:xlink="http://www.w3.org/1999/xlink" x="0px" y="0px"
	 viewBox="0 0 256 256" style="enable-background:new 0 0 256 256;" xml:space="preserve">
<style type="text/css">
	.st0{fill:#FFFFFF;}
</style>
<g>
	<path class="st0" d="M80.4,177.5c0.5,1.3,1.3,2.4,2.3,3.4c1,1,2.2,1.8,3.5,2.3c1.3,0.5,2.7,0.8,4.1,0.8c1.4,0,2.8-0.3,4.1-0.8
		c1.3-0.5,2.5-1.3,3.5-2.3c1-1,1.8-2.1,2.3-3.4c0.5-1.3,0.7-2.6,0.7-4v-49.5c0.2-1.8,1-3.4,2.3-4.6c1.3-1.2,3.1-1.9,4.9-2l19.5,0
		v38.3c-0.1,7.3,2.7,14.4,7.9,19.7c5.2,5.3,12.4,8.5,20,8.9v0l17.8,0.1c2.8-0.1,5.5-1.3,7.4-3.2c2-2,3-4.6,3-7.3
		c0-2.7-1.1-5.3-3-7.3s-4.6-3.1-7.4-3.2l-17.4-0.1c-1,0-2-0.2-2.8-0.6c-0.9-0.4-1.7-0.9-2.4-1.6c-0.7-0.7-1.2-1.5-1.5-2.4
		c-0.3-0.9-0.5-1.8-0.5-2.8v-38.5H161c1.4,0,2.8-0.3,4-0.8s2.4-1.3,3.4-2.3c2-2,3.1-4.7,3.1-7.5c0-2.7-1-5.4-3-7.3s-4.7-3.1-7.5-3.2
		h-12.4v-20c0.1-1.4-0.2-2.7-0.7-4c-0.5-1.3-1.3-2.5-2.2-3.4c-1-1-2.2-1.8-3.5-2.3c-1.3-0.5-2.7-0.8-4.1-0.8c-1.4,0-2.8,0.3-4.1,0.8
		c-1.3,0.5-2.5,1.3-3.5,2.3c-1,1-1.7,2.2-2.2,3.4c-0.5,1.3-0.7,2.6-0.7,4v20l-19.5,0c-7.7,0.2-14.9,3.2-20.2,8.5
		c-5.3,5.3-8.2,12.4-8.1,19.8l0,48.9C79.7,174.9,79.9,176.3,80.4,177.5z"/>
	<path d="M128,25.5C71.4,25.5,25.5,71.4,25.5,128c0,56.6,45.9,102.5,102.5,102.5c56.6,0,102.5-45.9,102.5-102.5
		C230.5,71.4,184.6,25.5,128,25.5z M180.6,181.1c-2,2-4.6,3.1-7.4,3.2l-17.8-0.1v0c-7.6-0.4-14.8-3.5-20-8.9
		c-5.2-5.3-8-12.4-7.9-19.7v-38.3l-19.5,0c-1.8,0.1-3.6,0.8-4.9,2c-1.3,1.2-2.1,2.9-2.3,4.6v49.5c0.1,1.4-0.2,2.7-0.7,4
		c-0.5,1.3-1.3,2.4-2.3,3.4c-1,1-2.2,1.8-3.5,2.3c-1.3,0.5-2.7,0.8-4.1,0.8c-1.4,0-2.8-0.3-4.1-0.8c-1.3-0.5-2.5-1.3-3.5-2.3
		c-1-1-1.8-2.1-2.3-3.4c-0.5-1.3-0.7-2.6-0.7-4l0-48.9c-0.1-7.4,2.8-14.5,8.1-19.8c5.3-5.3,12.6-8.4,20.2-8.5l19.5,0v-20
		c-0.1-1.4,0.2-2.7,0.7-4c0.5-1.3,1.3-2.5,2.2-3.4c1-1,2.2-1.8,3.5-2.3c1.3-0.5,2.7-0.8,4.1-0.8c1.4,0,2.8,0.3,4.1,0.8
		c1.3,0.5,2.5,1.3,3.5,2.3c1,1,1.7,2.2,2.2,3.4c0.5,1.3,0.7,2.6,0.7,4v20h12.4c2.8,0.1,5.6,1.2,7.5,3.2s3.1,4.6,3,7.3
		c0,2.8-1.1,5.5-3.1,7.5c-1,1-2.1,1.7-3.4,2.3s-2.6,0.8-4,0.8h-12.5v38.5c0,0.9,0.1,1.9,0.5,2.8c0.3,0.9,0.9,1.7,1.5,2.4
		c0.7,0.7,1.5,1.2,2.4,1.6c0.9,0.4,1.9,0.6,2.8,0.6l17.4,0.1c2.8,0.1,5.5,1.3,7.4,3.2s3,4.6,3,7.3
		C183.6,176.6,182.5,179.2,180.6,181.1z"/>
</g>
</svg>
